<svg width="6181" height="2142" viewBox="0 0 6181 2142" fill="none" xmlns="http://www.w3.org/2000/svg">
<path d="M513.412 58.4111L1265.58 1982.9M788.047 58.4111L35.876 1982.9M753.914 58.4111L280.145 2069.62M550.681 58.4111L1024.45 2069.62M648.926 35.8665L648.926 2105.87" stroke="#77994C" stroke-width="71.7329" stroke-linecap="round" stroke-linejoin="round"/>
<path d="M1631.33 1530.06C1616.01 1530.06 1602.29 1524.25 1590.14 1512.63C1578.53 1501.55 1572.72 1488.35 1572.72 1473.03C1572.72 1453.5 1612.58 1340.51 1692.31 1134.07C1679.64 1132.48 1668.81 1128.52 1659.84 1122.19C1650.86 1115.85 1644.26 1108.2 1640.04 1099.22C1636.34 1090.24 1633.7 1082.06 1632.12 1074.67C1630.53 1067.28 1629.74 1060.15 1629.74 1053.29C1629.74 1035.86 1636.61 1022.13 1650.33 1012.1C1664.59 1001.54 1680.96 996.263 1699.44 996.263C1704.19 996.263 1711.58 996.527 1721.61 997.055C1732.17 997.583 1739.83 997.847 1744.58 997.847C1746.16 993.095 1759.89 957.72 1785.76 891.722C1811.63 825.724 1834.86 765.798 1855.46 711.943C1876.05 657.561 1899.01 596.314 1924.36 528.204C1949.7 459.566 1969.5 402.016 1983.76 355.553C1998.54 309.09 2005.93 278.995 2005.93 265.268C2005.93 237.812 2014.91 211.149 2032.86 185.278C2050.81 159.407 2072.99 146.471 2099.38 146.471C2117.34 146.471 2131.59 153.071 2142.15 166.27C2152.71 179.47 2157.99 195.046 2157.99 212.997C2157.99 220.389 2156.14 231.213 2152.45 245.468C2148.75 259.724 2146.9 270.02 2146.9 276.355C2146.9 290.083 2175.94 387.496 2234.02 568.595C2292.63 749.166 2334.34 875.091 2359.15 946.369C2382.39 947.425 2402.71 953.76 2420.14 965.376C2438.09 976.464 2447.06 992.831 2447.06 1014.48C2447.06 1027.68 2442.84 1040.09 2434.39 1051.7C2425.94 1062.79 2415.38 1069.92 2402.71 1073.09C2405.88 1081.53 2419.61 1118.23 2443.9 1183.17C2468.18 1248.11 2489.83 1307.51 2508.84 1361.37C2527.84 1414.69 2537.35 1445.05 2537.35 1452.44C2537.35 1470.92 2531.28 1486.5 2519.13 1499.17C2507.52 1512.37 2492.73 1518.97 2474.78 1518.97C2461.05 1518.97 2449.44 1516.33 2439.94 1511.05C2430.96 1506.3 2423.83 1498.91 2418.55 1488.87C2413.27 1478.31 2409.31 1468.81 2406.67 1460.36C2404.56 1451.91 2402.18 1440.56 2399.54 1426.31C2395.32 1402.02 2388.46 1373.24 2378.95 1339.98C2369.98 1306.19 2361.53 1277.94 2353.61 1255.24C2346.22 1232.54 2335.39 1200.59 2321.14 1159.41C2307.41 1118.23 2298.44 1091.56 2294.21 1079.42C2262.53 1081.53 2213.43 1083.91 2146.9 1086.55C2080.38 1089.19 2020.72 1092.36 1967.92 1096.05C1915.12 1099.22 1866.02 1103.97 1820.61 1110.31C1815.86 1124.56 1806.62 1151.23 1792.89 1190.3C1779.69 1228.84 1768.6 1261.58 1759.63 1288.5C1750.65 1315.43 1742.47 1341.83 1735.08 1367.7C1733.49 1374.04 1729.8 1389.61 1723.99 1414.43C1718.71 1438.71 1713.69 1457.19 1708.94 1469.87C1703.13 1485.18 1692.57 1498.91 1677.26 1511.05C1662.48 1523.72 1647.17 1530.06 1631.33 1530.06ZM1861 993.095C2046.85 988.344 2178.85 978.048 2256.99 962.208C2242.2 909.938 2225.57 857.403 2207.09 804.605C2189.14 751.806 2164.59 683.96 2133.44 601.066C2102.29 517.645 2083.02 465.638 2075.63 445.047C2053.98 506.293 2018.08 597.634 1967.92 719.071C1918.29 840.508 1882.65 931.849 1861 993.095ZM2795.53 1530.06C2783.92 1530.06 2773.09 1526.62 2763.06 1519.76C2753.56 1513.42 2746.43 1504.98 2741.68 1494.42C2739.04 1488.08 2736.4 1470.92 2733.76 1442.94V1372.45C2733.76 1182.38 2731.65 1039.29 2727.42 943.201C2723.73 847.107 2711.85 682.64 2691.78 449.799L2687.03 388.024C2686.5 381.688 2685.98 372.713 2685.45 361.097C2684.92 348.953 2684.39 339.714 2683.86 333.378C2683.34 327.57 2681.22 317.538 2677.53 303.283C2673.83 289.027 2671.98 277.411 2671.98 268.436C2671.98 239.396 2677.53 216.165 2688.62 198.742C2701.29 180.262 2719.5 171.022 2743.26 171.022C2750.13 171.022 2755.14 171.55 2758.31 172.606C2782.6 179.998 2798.17 197.422 2805.04 224.877C2809.26 239.132 2811.37 254.708 2811.37 271.603C2811.37 274.243 2809.79 291.403 2806.62 323.082C2805.57 356.345 2806.09 404.656 2808.21 468.014C2810.32 514.477 2816.39 632.217 2826.42 821.236C2828.53 860.307 2831.17 918.913 2834.34 997.055C2837.51 1075.2 2840.15 1134.07 2842.26 1173.67C2851.76 1300.91 2858.36 1375.36 2862.06 1397C2865.23 1411.26 2866.81 1426.04 2866.81 1441.35C2866.81 1459.31 2863.64 1473.3 2857.31 1483.33C2845.69 1507.62 2830.91 1522.14 2812.96 1526.89C2804.51 1529 2798.7 1530.06 2795.53 1530.06ZM3870.25 1285.34C3871.83 1315.43 3875.26 1348.96 3880.54 1385.92C3886.35 1422.88 3889.26 1444.52 3889.26 1450.86C3889.26 1469.87 3882.13 1488.61 3867.87 1507.09C3853.62 1525.57 3836.98 1534.81 3817.98 1534.81C3798.44 1534.81 3783.39 1527.94 3772.83 1514.22C3764.91 1503.66 3759.63 1485.71 3756.99 1460.36C3754.35 1434.49 3751.98 1373.51 3749.87 1277.42C3711.32 1319.65 3666.71 1357.41 3616.02 1390.67C3565.86 1423.4 3517.55 1447.16 3471.09 1461.95C3422.52 1478.31 3372.62 1486.5 3321.41 1486.5C3231.65 1486.5 3159.05 1459.57 3103.61 1405.72C3048.7 1351.86 3021.25 1283.49 3021.25 1200.59C3021.25 1132.48 3037.88 1066.49 3071.14 1002.6C3104.93 938.713 3149.02 883.802 3203.4 837.868C3257.78 791.933 3320.61 754.974 3391.89 726.991C3463.7 699.008 3536.03 685.016 3608.89 685.016C3622.62 685.016 3645.33 686.336 3677 688.976C3708.68 691.616 3727.69 693.464 3734.03 694.52C3731.92 639.081 3727.96 579.947 3722.15 517.117C3716.34 453.758 3710.53 398.584 3704.72 351.593C3699.44 304.603 3696.54 276.355 3696.01 266.852C3694.43 233.589 3698.39 208.773 3707.89 192.406C3717.92 176.038 3735.61 167.854 3760.95 167.854C3782.6 167.854 3800.55 175.246 3814.81 190.03C3829.06 204.285 3836.19 227.781 3836.19 260.516C3836.19 263.156 3834.87 275.035 3832.23 296.155L3833.82 537.708C3835.4 585.755 3836.19 646.737 3836.19 720.655C3842 724.351 3846.75 732.535 3850.45 745.206C3854.67 757.35 3856.78 768.702 3856.78 779.261C3856.78 788.237 3852.56 801.173 3844.11 818.068C3844.11 819.124 3844.38 830.476 3844.9 852.123C3845.96 873.243 3847.02 895.682 3848.07 919.441C3849.13 943.201 3849.92 957.456 3850.45 962.208C3872.1 981.744 3882.92 1003.92 3882.92 1028.73C3882.92 1055.66 3875.26 1084.96 3859.95 1116.64C3859.42 1121.4 3862.86 1177.63 3870.25 1285.34ZM3726.9 1101.6C3729.54 1095.79 3732.71 1084.7 3736.4 1068.33C3740.1 1051.44 3741.95 1042.73 3741.95 1042.2C3741.95 928.153 3741.42 858.987 3740.36 834.7C3734.03 834.7 3711.59 829.684 3673.05 819.652C3635.03 809.093 3605.46 803.813 3584.34 803.813C3531.54 803.813 3480.86 811.996 3432.28 828.364C3383.71 844.732 3341.21 866.643 3304.78 894.098C3268.34 921.553 3236.4 952.441 3208.95 986.76C3181.49 1021.08 3160.64 1056.98 3146.38 1094.47C3132.65 1131.43 3125.79 1167.33 3125.79 1202.18C3125.79 1257.09 3142.42 1300.91 3175.68 1333.65C3209.47 1366.38 3254.35 1382.75 3310.32 1382.75C3386.88 1382.75 3466.34 1355.56 3548.7 1301.17C3631.6 1246.26 3691 1179.74 3726.9 1101.6ZM4423.05 1518.97C4355.47 1518.97 4296.07 1502.87 4244.85 1470.66C4193.64 1437.92 4153.78 1394.36 4125.26 1339.98C4096.75 1285.07 4079.07 1221.98 4072.2 1150.7C4053.72 1138.03 4044.48 1121.13 4044.48 1100.01C4044.48 1079.42 4054.25 1062.79 4073.79 1050.12C4074.84 1049.59 4076.43 1042.99 4078.54 1030.32C4084.87 976.992 4099.66 925.777 4122.89 876.675C4146.12 827.572 4174.9 784.805 4209.21 748.374C4244.06 711.943 4284.45 682.904 4330.39 661.257C4376.32 639.081 4423.84 627.994 4472.94 627.994C4527.33 627.994 4578.8 643.041 4627.38 673.136C4676.48 703.231 4715.02 742.566 4743.01 791.141C4771.52 839.188 4785.77 888.818 4785.77 940.033C4785.25 947.425 4783.66 954.024 4781.02 959.832C4778.38 965.112 4774.42 969.6 4769.14 973.296C4764.39 976.992 4760.17 979.896 4756.47 982.008C4752.78 983.592 4747.76 985.44 4741.42 987.552C4735.62 989.663 4732.18 990.983 4731.13 991.511C4641.37 1023.72 4555.57 1051.17 4473.73 1073.88C4391.9 1096.05 4324.32 1112.95 4270.99 1124.56C4218.19 1135.65 4188.62 1142.25 4182.29 1144.36C4193.9 1235.7 4221.09 1303.81 4263.86 1348.69C4306.63 1393.04 4359.16 1415.22 4421.46 1415.22C4501.72 1415.22 4584.88 1382.75 4670.94 1317.81C4685.19 1307.25 4697.86 1290.88 4708.95 1268.7C4720.57 1246 4727.96 1232.54 4731.13 1228.31C4733.77 1224.62 4736.67 1221.45 4739.84 1218.81C4743.54 1216.17 4746.7 1214.06 4749.34 1212.47C4751.98 1210.36 4755.42 1208.78 4759.64 1207.72C4763.86 1206.14 4766.77 1205.08 4768.35 1204.55C4770.46 1203.5 4773.89 1202.97 4778.65 1202.97C4783.4 1202.44 4786.3 1202.18 4787.36 1202.18C4788.94 1202.18 4792.11 1202.18 4796.86 1202.18C4802.14 1202.18 4805.05 1202.18 4805.57 1202.18C4820.36 1202.18 4833.29 1207.46 4844.38 1218.02C4855.47 1228.05 4861.01 1241.25 4861.01 1257.62C4861.01 1290.35 4838.84 1324.41 4794.49 1359.78C4789.21 1363.48 4778.91 1371.66 4763.6 1384.33C4748.82 1396.48 4736.41 1406.24 4726.38 1413.64C4716.87 1421.03 4702.88 1430.27 4684.4 1441.35C4665.92 1452.44 4646.39 1462.47 4625.79 1471.45C4557.68 1503.13 4490.1 1518.97 4423.05 1518.97ZM4184.66 1027.15C4212.65 1024.51 4295.8 1004.98 4434.14 968.544C4573 931.585 4652.46 909.146 4672.52 901.226C4672.52 900.698 4671.2 897.002 4668.56 890.138C4666.45 882.746 4663.28 873.507 4659.06 862.419C4654.83 851.331 4650.61 841.564 4646.39 833.116C4628.96 800.909 4605.2 776.357 4575.11 759.462C4545.01 742.566 4512.01 734.119 4476.11 734.119C4410.11 734.119 4348.87 759.99 4292.37 811.732C4235.88 863.475 4199.97 935.281 4184.66 1027.15ZM5053.46 551.964C5028.65 551.964 5007.79 544.308 4990.9 528.996C4974 513.685 4965.55 493.885 4965.55 469.598C4965.55 444.783 4974.26 423.135 4991.69 404.656C5009.64 386.176 5031.29 376.937 5056.63 376.937C5080.39 376.937 5102.04 386.704 5121.57 406.24C5143.22 414.687 5154.04 434.223 5154.04 464.846C5154.04 491.245 5143.75 512.365 5123.16 528.204C5102.57 544.044 5079.33 551.964 5053.46 551.964ZM5055.05 477.518L5059.8 472.766V471.182C5059.8 465.374 5056.63 460.358 5050.29 456.134C5047.13 457.718 5045.54 460.622 5045.54 464.846C5045.54 465.902 5045.81 467.222 5046.33 468.806C5046.86 470.39 5047.13 471.71 5047.13 472.766L5050.29 475.934L5055.05 477.518ZM5087.52 1537.98C5042.11 1536.39 5019.41 1508.41 5019.41 1454.03C5019.41 1432.91 5020.99 1413.37 5024.16 1395.42C5030.5 1351.07 5033.66 1292.2 5033.66 1218.81V1168.12C5033.66 1148.06 5033.14 1126.94 5032.08 1104.76C5031.02 1082.06 5029.7 1062.53 5028.12 1046.16C5027.06 1029.79 5024.95 1008.67 5021.78 982.8C5019.14 956.4 5017.03 937.129 5015.45 924.985C5013.86 912.314 5010.96 890.93 5006.74 860.835C5003.04 830.212 5000.66 810.148 4999.61 800.645C4994.33 767.91 4991.69 747.318 4991.69 738.87C4991.69 719.863 4997.5 703.495 5009.11 689.768C5020.73 676.04 5036.04 669.176 5055.05 669.176C5079.33 669.176 5097.29 679.472 5108.9 700.064C5120.52 720.127 5126.85 743.358 5127.91 769.758L5147.71 1348.69C5147.71 1356.61 5149.29 1372.45 5152.46 1396.21C5155.63 1419.44 5157.21 1434.49 5157.21 1441.35C5157.21 1468.81 5151.4 1491.78 5139.79 1510.26C5128.17 1529.26 5110.75 1538.5 5087.52 1537.98ZM6046.6 1469.87C6046.6 1487.29 6039.21 1501.28 6024.43 1511.84C6009.64 1522.93 5994.33 1528.47 5978.49 1528.47C5961.6 1528.47 5947.87 1522.93 5937.31 1511.84C5926.75 1501.28 5921.47 1486.23 5921.47 1466.7L5925.43 1389.08C5883.72 1430.8 5833.3 1463.53 5774.16 1487.29C5715.56 1510.52 5659.85 1522.14 5607.06 1522.14C5523.11 1522.14 5454.2 1499.96 5400.35 1455.61C5347.02 1410.73 5320.36 1351.86 5320.36 1279C5320.36 1238.87 5329.34 1200.07 5347.29 1162.58C5365.24 1124.56 5389.26 1091.3 5419.36 1062.79C5449.98 1034.28 5484.3 1009.2 5522.31 987.552C5560.33 965.376 5600.46 948.745 5642.69 937.657C5684.93 926.041 5726.12 920.233 5766.24 920.233C5770.47 920.233 5778.39 920.233 5790 920.233C5801.62 920.233 5810.07 920.233 5815.35 920.233C5820.63 920.233 5828.55 920.497 5839.1 921.025C5849.66 921.025 5858.38 921.553 5865.24 922.609C5872.1 923.137 5880.02 923.929 5889 924.985C5897.98 926.041 5906.69 927.625 5915.13 929.737C5924.11 931.849 5932.82 934.225 5941.27 936.865C5940.21 902.018 5937.57 872.451 5933.35 848.163C5929.65 823.876 5922.79 801.701 5912.76 781.637C5903.26 761.046 5889.53 745.734 5871.58 735.703C5853.62 725.671 5831.45 720.655 5805.05 720.655C5764.92 720.655 5722.95 726.463 5679.13 738.078C5635.3 749.166 5596.76 766.062 5563.5 788.765C5541.85 803.021 5525.48 816.484 5514.39 829.156C5503.83 841.3 5495.91 852.915 5490.63 864.003C5485.88 875.091 5481.92 882.482 5478.75 886.178C5465.03 901.49 5446.81 909.146 5424.11 909.146C5406.16 909.146 5390.85 902.81 5378.17 890.138C5365.5 877.467 5359.17 862.155 5359.17 844.204C5359.17 820.972 5371.05 799.853 5394.81 780.845L5444.7 743.622C5497.5 704.551 5555.58 673.664 5618.94 650.961C5682.82 628.258 5741.69 616.906 5795.55 616.906C5828.81 616.906 5858.11 619.81 5883.46 625.618C5909.33 631.425 5931.24 639.345 5949.19 649.377C5967.14 659.409 5982.19 673.664 5994.33 692.144C6007 710.095 6016.77 728.839 6023.64 748.374C6031.03 767.91 6036.31 792.725 6039.48 822.82C6043.17 852.915 6045.28 882.218 6045.81 910.73C6046.87 939.241 6047.13 974.352 6046.6 1016.06C6044.49 1115.85 6042.38 1188.71 6040.27 1234.65C6039.21 1260.52 6038.68 1292.46 6038.68 1330.48C6038.68 1366.91 6040 1398.06 6042.64 1423.93C6045.28 1449.8 6046.6 1465.11 6046.6 1469.87ZM5931.77 1209.31C5931.77 1206.67 5932.03 1199.54 5932.56 1187.92C5933.09 1175.78 5933.61 1159.67 5934.14 1139.61C5934.67 1119.55 5934.93 1098.96 5934.93 1077.84C5927.01 1075.2 5917.77 1070.45 5907.21 1063.58C5896.66 1056.19 5890.85 1052.23 5889.79 1051.7C5876.59 1044.31 5855.74 1037.97 5827.23 1032.69C5799.24 1027.41 5774.43 1025.04 5752.78 1025.57C5703.68 1027.15 5653.78 1039.03 5603.1 1061.21C5552.94 1083.38 5510.17 1114 5474.8 1153.07C5439.95 1192.15 5422.52 1233.59 5422.52 1277.42C5422.52 1317.01 5437.31 1350.81 5466.88 1378.79C5496.97 1406.24 5538.95 1419.97 5592.8 1419.97C5637.68 1419.97 5682.29 1409.41 5726.64 1388.29C5770.99 1367.17 5809.01 1339.19 5840.69 1304.34C5841.22 1303.29 5847.29 1295.1 5858.9 1279.79C5871.05 1264.48 5882.93 1251.02 5894.54 1239.4C5906.16 1227.26 5918.57 1217.23 5931.77 1209.31Z" fill="#A24F3B"/>
<path d="M1979.18 1825.87H2137.13V1863.16H1979.18V1825.87ZM1983.13 1962.32H2162.14V2000.49H1939.26V1693.37H2156V1731.54H1983.13V1962.32ZM2320.13 2003.12C2297.61 2003.12 2277.42 1998.15 2259.58 1988.21C2242.03 1978.26 2228.14 1964.37 2217.9 1946.52C2207.66 1928.68 2202.54 1907.91 2202.54 1884.22C2202.54 1860.53 2207.66 1839.91 2217.9 1822.36C2228.14 1804.52 2242.03 1790.62 2259.58 1780.68C2277.42 1770.73 2297.61 1765.76 2320.13 1765.76C2339.73 1765.76 2357.42 1770.15 2373.22 1778.92C2389.01 1787.7 2401.59 1800.86 2410.95 1818.41C2420.6 1835.96 2425.43 1857.9 2425.43 1884.22C2425.43 1910.55 2420.75 1932.48 2411.39 1950.03C2402.32 1967.58 2389.89 1980.89 2374.09 1989.96C2358.3 1998.74 2340.31 2003.12 2320.13 2003.12ZM2323.64 1966.27C2338.26 1966.27 2351.43 1962.9 2363.13 1956.18C2375.12 1949.45 2384.48 1939.94 2391.21 1927.66C2398.23 1915.08 2401.74 1900.6 2401.74 1884.22C2401.74 1867.55 2398.23 1853.22 2391.21 1841.23C2384.48 1828.94 2375.12 1819.43 2363.13 1812.71C2351.43 1805.98 2338.26 1802.62 2323.64 1802.62C2308.72 1802.62 2295.41 1805.98 2283.71 1812.71C2272.01 1819.43 2262.65 1828.94 2255.63 1841.23C2248.61 1853.22 2245.1 1867.55 2245.1 1884.22C2245.1 1900.6 2248.61 1915.08 2255.63 1927.66C2262.65 1939.94 2272.01 1949.45 2283.71 1956.18C2295.41 1962.9 2308.72 1966.27 2323.64 1966.27ZM2403.05 2000.49V1937.75L2405.68 1883.78L2401.3 1829.82V1674.94H2443.42V2000.49H2403.05ZM2620.95 2003.12C2601.06 2003.12 2583.51 1999.47 2568.3 1992.15C2553.38 1984.84 2541.68 1973.73 2533.2 1958.81C2525.01 1943.6 2520.92 1924.59 2520.92 1901.77V1767.95H2563.04V1896.95C2563.04 1919.76 2568.45 1936.87 2579.27 1948.28C2590.39 1959.69 2605.89 1965.39 2625.78 1965.39C2640.4 1965.39 2653.13 1962.47 2663.95 1956.62C2674.77 1950.47 2683.11 1941.7 2688.96 1930.29C2694.81 1918.59 2697.73 1904.55 2697.73 1888.17V1767.95H2739.85V2000.49H2699.93V1937.75L2706.51 1954.42C2698.9 1969.92 2687.5 1981.92 2672.29 1990.4C2657.08 1998.88 2639.96 2003.12 2620.95 2003.12ZM2921.39 2003.12C2897.7 2003.12 2876.49 1998 2857.77 1987.77C2839.34 1977.53 2824.86 1963.49 2814.33 1945.65C2803.8 1927.8 2798.54 1907.33 2798.54 1884.22C2798.54 1861.12 2803.8 1840.64 2814.33 1822.8C2824.86 1804.96 2839.34 1791.06 2857.77 1781.12C2876.49 1770.88 2897.7 1765.76 2921.39 1765.76C2942.45 1765.76 2961.17 1770 2977.55 1778.48C2994.22 1786.67 3007.09 1798.96 3016.16 1815.34L2984.13 1835.96C2976.52 1824.55 2967.16 1816.22 2956.05 1810.95C2945.23 1805.39 2933.53 1802.62 2920.95 1802.62C2905.74 1802.62 2892.14 1805.98 2880.15 1812.71C2868.15 1819.43 2858.65 1828.94 2851.63 1841.23C2844.61 1853.22 2841.1 1867.55 2841.1 1884.22C2841.1 1900.89 2844.61 1915.37 2851.63 1927.66C2858.65 1939.94 2868.15 1949.45 2880.15 1956.18C2892.14 1962.9 2905.74 1966.27 2920.95 1966.27C2933.53 1966.27 2945.23 1963.64 2956.05 1958.37C2967.16 1952.81 2976.52 1944.33 2984.13 1932.92L3016.16 1953.11C3007.09 1969.19 2994.22 1981.62 2977.55 1990.4C2961.17 1998.88 2942.45 2003.12 2921.39 2003.12ZM3215.04 2000.49V1951.35L3212.84 1942.14V1858.34C3212.84 1840.49 3207.58 1826.75 3197.05 1817.09C3186.81 1807.15 3171.31 1802.18 3150.54 1802.18C3136.79 1802.18 3123.34 1804.52 3110.18 1809.2C3097.01 1813.58 3085.9 1819.58 3076.83 1827.19L3059.28 1795.6C3071.27 1785.94 3085.61 1778.63 3102.28 1773.66C3119.24 1768.39 3136.94 1765.76 3155.37 1765.76C3187.25 1765.76 3211.82 1773.51 3229.08 1789.01C3246.33 1804.52 3254.96 1828.21 3254.96 1860.09V2000.49H3215.04ZM3138.69 2003.12C3121.44 2003.12 3106.23 2000.2 3093.06 1994.35C3080.19 1988.5 3070.25 1980.45 3063.23 1970.22C3056.21 1959.69 3052.7 1947.84 3052.7 1934.68C3052.7 1922.1 3055.62 1910.69 3061.47 1900.46C3067.62 1890.22 3077.42 1882.03 3090.87 1875.89C3104.62 1869.74 3123.05 1866.67 3146.15 1866.67H3219.86V1896.95H3147.91C3126.85 1896.95 3112.66 1900.46 3105.35 1907.48C3098.04 1914.5 3094.38 1922.98 3094.38 1932.92C3094.38 1944.33 3098.91 1953.54 3107.98 1960.56C3117.05 1967.29 3129.63 1970.66 3145.71 1970.66C3161.51 1970.66 3175.26 1967.15 3186.96 1960.13C3198.95 1953.11 3207.58 1942.87 3212.84 1929.41L3221.18 1958.37C3215.62 1972.12 3205.82 1983.09 3191.78 1991.28C3177.74 1999.17 3160.05 2003.12 3138.69 2003.12ZM3434.26 2003.12C3410.57 2003.12 3389.36 1998 3370.64 1987.77C3352.21 1977.53 3337.73 1963.49 3327.2 1945.65C3316.67 1927.8 3311.41 1907.33 3311.41 1884.22C3311.41 1861.12 3316.67 1840.64 3327.2 1822.8C3337.73 1804.96 3352.21 1791.06 3370.64 1781.12C3389.36 1770.88 3410.57 1765.76 3434.26 1765.76C3455.32 1765.76 3474.04 1770 3490.42 1778.48C3507.09 1786.67 3519.96 1798.96 3529.03 1815.34L3497 1835.96C3489.39 1824.55 3480.03 1816.22 3468.92 1810.95C3458.1 1805.39 3446.4 1802.62 3433.82 1802.62C3418.61 1802.62 3405.01 1805.98 3393.02 1812.71C3381.02 1819.43 3371.52 1828.94 3364.5 1841.23C3357.48 1853.22 3353.97 1867.55 3353.97 1884.22C3353.97 1900.89 3357.48 1915.37 3364.5 1927.66C3371.52 1939.94 3381.02 1949.45 3393.02 1956.18C3405.01 1962.9 3418.61 1966.27 3433.82 1966.27C3446.4 1966.27 3458.1 1963.64 3468.92 1958.37C3480.03 1952.81 3489.39 1944.33 3497 1932.92L3529.03 1953.11C3519.96 1969.19 3507.09 1981.62 3490.42 1990.4C3474.04 1998.88 3455.32 2003.12 3434.26 2003.12ZM3413.64 2098.77C3406.03 2098.77 3399.01 2097.89 3392.58 2096.14C3386.14 2094.67 3380.15 2092.33 3374.59 2089.12L3383.8 2067.62C3388.48 2070.25 3393.16 2072.15 3397.84 2073.32C3402.82 2074.49 3408.08 2075.08 3413.64 2075.08C3422.12 2075.08 3428.26 2073.47 3432.06 2070.25C3436.16 2067.33 3438.21 2063.09 3438.21 2057.53C3438.21 2052.26 3436.16 2048.02 3432.06 2044.8C3428.26 2041.88 3421.97 2040.42 3413.2 2040.42H3401.35L3412.32 1997.42H3436.45L3429.87 2022.43C3442.45 2023.6 3451.95 2027.55 3458.39 2034.27C3464.82 2041 3468.04 2049.19 3468.04 2058.84C3468.04 2071.13 3463.07 2080.78 3453.12 2087.8C3443.18 2095.11 3430.02 2098.77 3413.64 2098.77ZM3727.91 2000.49V1951.35L3725.71 1942.14V1858.34C3725.71 1840.49 3720.45 1826.75 3709.92 1817.09C3699.68 1807.15 3684.18 1802.18 3663.41 1802.18C3649.66 1802.18 3636.21 1804.52 3623.05 1809.2C3609.88 1813.58 3598.77 1819.58 3589.7 1827.19L3572.15 1795.6C3584.14 1785.94 3598.48 1778.63 3615.15 1773.66C3632.11 1768.39 3649.81 1765.76 3668.24 1765.76C3700.12 1765.76 3724.69 1773.51 3741.95 1789.01C3759.2 1804.52 3767.83 1828.21 3767.83 1860.09V2000.49H3727.91ZM3651.57 2003.12C3634.31 2003.12 3619.1 2000.2 3605.94 1994.35C3593.07 1988.5 3583.12 1980.45 3576.1 1970.22C3569.08 1959.69 3565.57 1947.84 3565.57 1934.68C3565.57 1922.1 3568.5 1910.69 3574.35 1900.46C3580.49 1890.22 3590.29 1882.03 3603.74 1875.89C3617.49 1869.74 3635.92 1866.67 3659.02 1866.67H3732.73V1896.95H3660.78C3639.72 1896.95 3625.53 1900.46 3618.22 1907.48C3610.91 1914.5 3607.25 1922.98 3607.25 1932.92C3607.25 1944.33 3611.79 1953.54 3620.85 1960.56C3629.92 1967.29 3642.5 1970.66 3658.59 1970.66C3674.38 1970.66 3688.13 1967.15 3699.83 1960.13C3711.82 1953.11 3720.45 1942.87 3725.71 1929.41L3734.05 1958.37C3728.49 1972.12 3718.69 1983.09 3704.65 1991.28C3690.61 1999.17 3672.92 2003.12 3651.57 2003.12ZM3702.02 1732.85C3695 1732.85 3688.71 1731.39 3683.16 1728.47C3677.89 1725.54 3673.06 1722.18 3668.68 1718.38C3664.29 1714.28 3660.05 1710.77 3655.95 1707.85C3651.86 1704.92 3647.76 1703.46 3643.67 1703.46C3637.23 1703.46 3631.97 1705.94 3627.87 1710.92C3624.07 1715.6 3621.88 1722.18 3621.29 1730.66H3597.6C3598.18 1714.28 3602.28 1701.26 3609.88 1691.61C3617.49 1681.96 3627.73 1677.13 3640.6 1677.13C3647.62 1677.13 3653.91 1678.74 3659.46 1681.96C3665.02 1684.89 3669.99 1688.4 3674.38 1692.49C3678.77 1696.29 3682.86 1699.66 3686.67 1702.58C3690.76 1705.51 3694.86 1706.97 3698.95 1706.97C3705.38 1706.97 3710.65 1704.63 3714.74 1699.95C3718.84 1695.27 3721.03 1688.83 3721.33 1680.64H3745.02C3744.73 1696.15 3740.63 1708.72 3732.73 1718.38C3725.13 1728.03 3714.89 1732.85 3702.02 1732.85ZM3945.38 2003.12C3921.98 2003.12 3901.21 1998 3883.07 1987.77C3864.94 1977.53 3850.61 1963.49 3840.08 1945.65C3829.55 1927.51 3824.28 1907.04 3824.28 1884.22C3824.28 1861.12 3829.55 1840.64 3840.08 1822.8C3850.61 1804.96 3864.94 1791.06 3883.07 1781.12C3901.21 1770.88 3921.98 1765.76 3945.38 1765.76C3968.48 1765.76 3989.1 1770.88 4007.24 1781.12C4025.67 1791.06 4040 1804.96 4050.24 1822.8C4060.77 1840.35 4066.03 1860.82 4066.03 1884.22C4066.03 1907.33 4060.77 1927.8 4050.24 1945.65C4040 1963.49 4025.67 1977.53 4007.24 1987.77C3989.1 1998 3968.48 2003.12 3945.38 2003.12ZM3945.38 1966.27C3960.29 1966.27 3973.6 1962.9 3985.3 1956.18C3997.29 1949.45 4006.65 1939.94 4013.38 1927.66C4020.11 1915.08 4023.47 1900.6 4023.47 1884.22C4023.47 1867.55 4020.11 1853.22 4013.38 1841.23C4006.65 1828.94 3997.29 1819.43 3985.3 1812.71C3973.6 1805.98 3960.29 1802.62 3945.38 1802.62C3930.46 1802.62 3917.15 1805.98 3905.45 1812.71C3893.75 1819.43 3884.39 1828.94 3877.37 1841.23C3870.35 1853.22 3866.84 1867.55 3866.84 1884.22C3866.84 1900.6 3870.35 1915.08 3877.37 1927.66C3884.39 1939.94 3893.75 1949.45 3905.45 1956.18C3917.15 1962.9 3930.46 1966.27 3945.38 1966.27ZM4248.25 2000.49V1693.37H4292.13V2000.49H4248.25ZM4502.1 1765.76C4521.11 1765.76 4537.78 1769.42 4552.11 1776.73C4566.74 1784.04 4578.15 1795.16 4586.34 1810.07C4594.53 1824.99 4598.62 1843.86 4598.62 1866.67V2000.49H4556.5V1871.5C4556.5 1848.98 4550.94 1832.01 4539.83 1820.6C4529.01 1809.2 4513.65 1803.49 4493.76 1803.49C4478.84 1803.49 4465.83 1806.42 4454.71 1812.27C4443.6 1818.12 4434.97 1826.75 4428.83 1838.15C4422.98 1849.56 4420.05 1863.75 4420.05 1880.71V2000.49H4377.93V1767.95H4418.3V1830.7L4411.72 1814.02C4419.32 1798.81 4431.02 1786.97 4446.81 1778.48C4462.61 1770 4481.04 1765.76 4502.1 1765.76ZM4682.71 2000.49V1747.33C4682.71 1724.52 4689.29 1706.38 4702.46 1692.93C4715.91 1679.18 4734.92 1672.31 4759.49 1672.31C4768.56 1672.31 4777.19 1673.48 4785.38 1675.82C4793.86 1677.87 4801.03 1681.23 4806.88 1685.91L4794.16 1717.94C4789.77 1714.43 4784.8 1711.79 4779.24 1710.04C4773.68 1707.99 4767.83 1706.97 4761.69 1706.97C4749.4 1706.97 4740.04 1710.48 4733.61 1717.5C4727.17 1724.23 4723.96 1734.32 4723.96 1747.77V1778.92L4724.83 1798.23V2000.49H4682.71ZM4643.23 1802.62V1767.95H4791.52V1802.62H4643.23ZM4971.31 2000.49V1951.35L4969.12 1942.14V1858.34C4969.12 1840.49 4963.85 1826.75 4953.32 1817.09C4943.08 1807.15 4927.58 1802.18 4906.81 1802.18C4893.07 1802.18 4879.61 1804.52 4866.45 1809.2C4853.29 1813.58 4842.17 1819.58 4833.1 1827.19L4815.55 1795.6C4827.55 1785.94 4841.88 1778.63 4858.55 1773.66C4875.52 1768.39 4893.21 1765.76 4911.64 1765.76C4943.52 1765.76 4968.09 1773.51 4985.35 1789.01C5002.61 1804.52 5011.24 1828.21 5011.24 1860.09V2000.49H4971.31ZM4894.97 2003.12C4877.71 2003.12 4862.5 2000.2 4849.34 1994.35C4836.47 1988.5 4826.52 1980.45 4819.5 1970.22C4812.48 1959.69 4808.97 1947.84 4808.97 1934.68C4808.97 1922.1 4811.9 1910.69 4817.75 1900.46C4823.89 1890.22 4833.69 1882.03 4847.14 1875.89C4860.89 1869.74 4879.32 1866.67 4902.43 1866.67H4976.14V1896.95H4904.18C4883.12 1896.95 4868.94 1900.46 4861.62 1907.48C4854.31 1914.5 4850.65 1922.98 4850.65 1932.92C4850.65 1944.33 4855.19 1953.54 4864.26 1960.56C4873.32 1967.29 4885.9 1970.66 4901.99 1970.66C4917.78 1970.66 4931.53 1967.15 4943.23 1960.13C4955.22 1953.11 4963.85 1942.87 4969.12 1929.41L4977.45 1958.37C4971.89 1972.12 4962.1 1983.09 4948.06 1991.28C4934.02 1999.17 4916.32 2003.12 4894.97 2003.12ZM5213.35 1765.76C5232.36 1765.76 5249.03 1769.42 5263.36 1776.73C5277.99 1784.04 5289.4 1795.16 5297.59 1810.07C5305.78 1824.99 5309.87 1843.86 5309.87 1866.67V2000.49H5267.75V1871.5C5267.75 1848.98 5262.19 1832.01 5251.08 1820.6C5240.26 1809.2 5224.9 1803.49 5205.01 1803.49C5190.09 1803.49 5177.08 1806.42 5165.96 1812.27C5154.85 1818.12 5146.22 1826.75 5140.08 1838.15C5134.23 1849.56 5131.3 1863.75 5131.3 1880.71V2000.49H5089.18V1767.95H5129.55V1830.7L5122.97 1814.02C5130.57 1798.81 5142.27 1786.97 5158.07 1778.48C5173.86 1770 5192.29 1765.76 5213.35 1765.76ZM5467.67 2003.12C5444.27 2003.12 5426.14 1996.83 5413.27 1984.26C5400.4 1971.68 5393.96 1953.69 5393.96 1930.29V1717.06H5436.08V1928.54C5436.08 1941.11 5439.15 1950.77 5445.3 1957.49C5451.73 1964.22 5460.8 1967.58 5472.5 1967.58C5485.66 1967.58 5496.63 1963.93 5505.41 1956.62L5518.57 1986.89C5512.13 1992.45 5504.38 1996.54 5495.31 1999.17C5486.54 2001.81 5477.33 2003.12 5467.67 2003.12ZM5354.48 1802.62V1767.95H5502.77V1802.62H5354.48ZM5569.49 2000.49V1767.95H5611.61V2000.49H5569.49ZM5590.55 1723.2C5582.36 1723.2 5575.49 1720.57 5569.93 1715.3C5564.66 1710.04 5562.03 1703.6 5562.03 1696C5562.03 1688.1 5564.66 1681.52 5569.93 1676.26C5575.49 1670.99 5582.36 1668.36 5590.55 1668.36C5598.74 1668.36 5605.47 1670.99 5610.73 1676.26C5616.29 1681.23 5619.07 1687.52 5619.07 1695.12C5619.07 1703.02 5616.44 1709.75 5611.17 1715.3C5605.91 1720.57 5599.03 1723.2 5590.55 1723.2ZM5692.03 2000.49V1674.94H5734.15V2000.49H5692.03Z" fill="#D28876"/>
</svg>
